<svg xmlns="http://www.w3.org/2000/svg" viewBox="0 0 1200 300" role="img" aria-labelledby="title desc">
  <title id="title">Sketch Arena</title>
  <desc id="desc">Sketch Arena wordmark with its three mascot faces.</desc>
  <g transform="translate(12 12) scale(.54)">
    <rect width="512" height="512" rx="112" fill="#171514"/>
    <circle cx="145" cy="244" r="91" fill="#f2c94c" stroke="#fffaf0" stroke-width="18"/>
    <circle cx="273" cy="173" r="105" fill="#70d6a7" stroke="#fffaf0" stroke-width="18"/>
    <circle cx="386" cy="255" r="88" fill="#ff5f46" stroke="#fffaf0" stroke-width="18"/>
    <g fill="#fffaf0" stroke="#171514" stroke-width="11"><circle cx="114" cy="224" r="22"/><circle cx="172" cy="218" r="22"/><circle cx="241" cy="151" r="23"/><circle cx="315" cy="148" r="23"/><circle cx="358" cy="238" r="21"/><circle cx="414" cy="242" r="21"/></g>
    <g fill="#171514"><circle cx="115" cy="225" r="8"/><circle cx="171" cy="219" r="8"/><circle cx="242" cy="152" r="8"/><circle cx="314" cy="149" r="8"/><circle cx="359" cy="239" r="8"/><circle cx="413" cy="243" r="8"/></g>
    <path d="M111 276c22 20 47 18 66-4M242 215c20-24 47-25 68-2M357 282c22 24 47 23 68-2" fill="none" stroke="#171514" stroke-width="14" stroke-linecap="round"/>
  </g>
  <g fill="#171514" font-family="Arial Black, Impact, sans-serif" font-weight="900">
    <text x="330" y="145" font-size="132" letter-spacing="-10">SKETCH</text>
    <text x="330" y="260" font-size="132" letter-spacing="-10">ARENA</text>
  </g>
  <path d="M341 278h740" stroke="#ff5f46" stroke-width="13" stroke-linecap="round"/>
  <path d="M971 41l23 23 42-38-17 54 54 16-56 8 4 57-32-47-48 29 29-47-42-34 55 15Z" fill="#f2c94c" stroke="#171514" stroke-width="6" stroke-linejoin="round"/>
</svg>
